<svg width="1920" height="172" viewBox="0 0 1920 172" fill="none" xmlns="http://www.w3.org/2000/svg">
<path d="M-13.176 84.856L-6.648 85.128C0.152002 85.128 6.408 84.04 12.12 81.864C15.4747 80.5947 18.1493 78.6 20.144 75.88C22.2293 73.16 23.272 69.8053 23.272 65.816C23.272 51.4907 14.6587 44.328 -2.568 44.328L-16.712 44.872V123.208C-16.712 124.477 -16.6213 125.475 -16.44 126.2C-16.2587 126.925 -15.6693 127.605 -14.672 128.24C-13.6747 128.875 -12.1787 129.192 -10.184 129.192H-5.016V133H-39.56V129.192H-35.208C-33.2133 129.192 -31.7173 128.875 -30.72 128.24C-29.7227 127.605 -29.1333 126.925 -28.952 126.2C-28.7707 125.475 -28.68 124.477 -28.68 123.208V47.864C-28.68 45.7787 -29.1333 44.2827 -30.04 43.376C-30.856 42.3787 -32.5787 41.88 -35.208 41.88H-39.56V37.8H-18.616L7.224 36.44C15.384 36.44 21.9573 38.208 26.944 41.744C31.9307 45.28 34.424 50.2667 34.424 56.704C34.424 63.0507 32.928 68.6267 29.936 73.432C27.0347 78.1467 23.408 81.6827 19.056 84.04C10.8053 88.392 3.416 90.568 -3.112 90.568C-6.92 90.568 -9.912 90.4773 -12.088 90.296L-13.176 84.856ZM89.3021 133H54.7581V129.192H59.3821C62.1021 129.192 63.8701 128.648 64.6861 127.56C65.5021 126.472 65.9101 124.931 65.9101 122.936V47.864C65.9101 45.8693 65.5021 44.328 64.6861 43.24C63.8701 42.152 62.1021 41.608 59.3821 41.608H54.7581V37.8H89.3021V41.608H84.1341C81.4141 41.608 79.6461 42.152 78.8301 43.24C78.0141 44.328 77.6061 45.8693 77.6061 47.864V122.936C77.6061 124.931 78.0141 126.472 78.8301 127.56C79.6461 128.648 81.4141 129.192 84.1341 129.192H89.3021V133ZM194.292 106.344L197.556 111.24C190.212 119.581 182.868 125.747 175.524 129.736C168.18 133.725 160.292 135.72 151.86 135.72C141.433 135.72 132.14 131.141 123.98 121.984C115.911 112.827 111.876 102.445 111.876 90.84C111.876 76.2427 117.361 63.368 128.332 52.216C139.393 40.9733 152.223 35.352 166.82 35.352C172.623 35.352 179.876 36.8027 188.58 39.704L186.948 58.744H182.324C182.324 55.3893 181.191 52.76 178.924 50.856C176.657 48.952 174.073 47.7733 171.172 47.32C168.361 46.776 164.825 46.504 160.564 46.504C150.047 46.504 140.889 49.5867 133.092 55.752C125.295 61.9173 121.396 70.3493 121.396 81.048C121.396 88.8453 122.847 95.7813 125.748 101.856C128.649 107.931 132.276 112.6 136.628 115.864C145.241 122.211 153.492 125.384 161.38 125.384C166.276 125.384 171.716 123.797 177.7 120.624C183.684 117.451 189.215 112.691 194.292 106.344ZM308.027 133H277.019V128.92H279.467C280.918 128.92 281.643 128.557 281.643 127.832C281.643 127.469 280.918 126.2 279.467 124.024L251.723 81.048L242.203 90.568V122.936C242.203 124.296 242.294 125.339 242.475 126.064C242.657 126.789 243.246 127.469 244.243 128.104C245.241 128.648 246.737 128.92 248.731 128.92H253.899V133H219.355V128.92H223.707C225.702 128.92 227.198 128.648 228.195 128.104C229.193 127.469 229.782 126.789 229.963 126.064C230.145 125.339 230.235 124.296 230.235 122.936V47.864C230.235 46.504 230.145 45.4613 229.963 44.736C229.782 44.0107 229.193 43.376 228.195 42.832C227.198 42.1973 225.702 41.88 223.707 41.88H219.355V37.8H253.899V41.88H248.731C246.737 41.88 245.241 42.1973 244.243 42.832C243.246 43.376 242.657 44.0107 242.475 44.736C242.294 45.4613 242.203 46.504 242.203 47.864V83.224L277.291 48.952C279.105 47.32 280.011 45.8693 280.011 44.6C280.011 42.7867 278.651 41.88 275.931 41.88H273.483V37.8H300.411V41.88H298.235C296.603 41.88 294.246 42.7413 291.163 44.464C288.081 46.1867 285.451 48.136 283.275 50.312L260.155 73.16L290.891 119.4C291.979 120.851 292.977 122.301 293.883 123.752C296.603 127.197 300.23 128.92 304.763 128.92H308.027V133ZM406.214 93.832V47.864C406.214 43.8747 403.403 41.88 397.782 41.88H393.43V37.8H426.07V41.88H420.902C417.91 41.88 415.643 42.4693 414.102 43.648C412.651 44.736 411.926 46.1413 411.926 47.864V93.832C411.926 100.723 410.657 106.979 408.118 112.6C405.67 118.131 402.497 122.528 398.598 125.792C390.529 132.411 382.006 135.72 373.03 135.72C364.054 135.72 356.075 132.909 349.094 127.288C342.203 121.667 338.758 115.048 338.758 107.432V47.864C338.758 46.504 338.667 45.4613 338.486 44.736C338.305 44.0107 337.715 43.376 336.718 42.832C335.721 42.1973 334.225 41.88 332.23 41.88H327.606V37.8H362.422V41.88H357.254C355.259 41.88 353.763 42.1973 352.766 42.832C351.769 43.376 351.179 44.0107 350.998 44.736C350.817 45.4613 350.726 46.504 350.726 47.864V95.736C350.726 105.8 352.993 113.099 357.526 117.632C362.15 122.075 369.041 124.296 378.198 124.296C382.459 124.296 386.358 123.571 389.894 122.12C393.43 120.669 396.241 118.947 398.326 116.952C400.502 114.957 402.361 111.965 403.902 107.976C405.443 103.896 406.214 99.1813 406.214 93.832ZM474.883 84.856L481.411 85.128C488.211 85.128 494.467 84.04 500.179 81.864C503.534 80.5947 506.209 78.6 508.203 75.88C510.289 73.16 511.331 69.8053 511.331 65.816C511.331 51.4907 502.718 44.328 485.491 44.328L471.347 44.872V123.208C471.347 124.477 471.438 125.475 471.619 126.2C471.801 126.925 472.39 127.605 473.387 128.24C474.385 128.875 475.881 129.192 477.875 129.192H483.043V133H448.499V129.192H452.851C454.846 129.192 456.342 128.875 457.339 128.24C458.337 127.605 458.926 126.925 459.107 126.2C459.289 125.475 459.379 124.477 459.379 123.208V47.864C459.379 45.7787 458.926 44.2827 458.019 43.376C457.203 42.3787 455.481 41.88 452.851 41.88H448.499V37.8H469.443L495.283 36.44C503.443 36.44 510.017 38.208 515.003 41.744C519.99 45.28 522.483 50.2667 522.483 56.704C522.483 63.0507 520.987 68.6267 517.995 73.432C515.094 78.1467 511.467 81.6827 507.115 84.04C498.865 88.392 491.475 90.568 484.947 90.568C481.139 90.568 478.147 90.4773 475.971 90.296L474.883 84.856Z" fill="black"/>
<path d="M1233.82 84.856L1240.35 85.128C1247.15 85.128 1253.41 84.04 1259.12 81.864C1262.47 80.5947 1265.15 78.6 1267.14 75.88C1269.23 73.16 1270.27 69.8053 1270.27 65.816C1270.27 51.4907 1261.66 44.328 1244.43 44.328L1230.29 44.872V123.208C1230.29 124.477 1230.38 125.475 1230.56 126.2C1230.74 126.925 1231.33 127.605 1232.33 128.24C1233.33 128.875 1234.82 129.192 1236.82 129.192H1241.98V133H1207.44V129.192H1211.79C1213.79 129.192 1215.28 128.875 1216.28 128.24C1217.28 127.605 1217.87 126.925 1218.05 126.2C1218.23 125.475 1218.32 124.477 1218.32 123.208V47.864C1218.32 45.7787 1217.87 44.2827 1216.96 43.376C1216.14 42.3787 1214.42 41.88 1211.79 41.88H1207.44V37.8H1228.38L1254.22 36.44C1262.38 36.44 1268.96 38.208 1273.94 41.744C1278.93 45.28 1281.42 50.2667 1281.42 56.704C1281.42 63.0507 1279.93 68.6267 1276.94 73.432C1274.03 78.1467 1270.41 81.6827 1266.06 84.04C1257.81 88.392 1250.42 90.568 1243.89 90.568C1240.08 90.568 1237.09 90.4773 1234.91 90.296L1233.82 84.856ZM1336.3 133H1301.76V129.192H1306.38C1309.1 129.192 1310.87 128.648 1311.69 127.56C1312.5 126.472 1312.91 124.931 1312.91 122.936V47.864C1312.91 45.8693 1312.5 44.328 1311.69 43.24C1310.87 42.152 1309.1 41.608 1306.38 41.608H1301.76V37.8H1336.3V41.608H1331.13C1328.41 41.608 1326.65 42.152 1325.83 43.24C1325.01 44.328 1324.61 45.8693 1324.61 47.864V122.936C1324.61 124.931 1325.01 126.472 1325.83 127.56C1326.65 128.648 1328.41 129.192 1331.13 129.192H1336.3V133ZM1441.29 106.344L1444.56 111.24C1437.21 119.581 1429.87 125.747 1422.52 129.736C1415.18 133.725 1407.29 135.72 1398.86 135.72C1388.43 135.72 1379.14 131.141 1370.98 121.984C1362.91 112.827 1358.88 102.445 1358.88 90.84C1358.88 76.2427 1364.36 63.368 1375.33 52.216C1386.39 40.9733 1399.22 35.352 1413.82 35.352C1419.62 35.352 1426.88 36.8027 1435.58 39.704L1433.95 58.744H1429.32C1429.32 55.3893 1428.19 52.76 1425.92 50.856C1423.66 48.952 1421.07 47.7733 1418.17 47.32C1415.36 46.776 1411.83 46.504 1407.56 46.504C1397.05 46.504 1387.89 49.5867 1380.09 55.752C1372.29 61.9173 1368.4 70.3493 1368.4 81.048C1368.4 88.8453 1369.85 95.7813 1372.75 101.856C1375.65 107.931 1379.28 112.6 1383.63 115.864C1392.24 122.211 1400.49 125.384 1408.38 125.384C1413.28 125.384 1418.72 123.797 1424.7 120.624C1430.68 117.451 1436.21 112.691 1441.29 106.344ZM1555.03 133H1524.02V128.92H1526.47C1527.92 128.92 1528.64 128.557 1528.64 127.832C1528.64 127.469 1527.92 126.2 1526.47 124.024L1498.72 81.048L1489.2 90.568V122.936C1489.2 124.296 1489.29 125.339 1489.48 126.064C1489.66 126.789 1490.25 127.469 1491.24 128.104C1492.24 128.648 1493.74 128.92 1495.73 128.92H1500.9V133H1466.36V128.92H1470.71C1472.7 128.92 1474.2 128.648 1475.2 128.104C1476.19 127.469 1476.78 126.789 1476.96 126.064C1477.14 125.339 1477.24 124.296 1477.24 122.936V47.864C1477.24 46.504 1477.14 45.4613 1476.96 44.736C1476.78 44.0107 1476.19 43.376 1475.2 42.832C1474.2 42.1973 1472.7 41.88 1470.71 41.88H1466.36V37.8H1500.9V41.88H1495.73C1493.74 41.88 1492.24 42.1973 1491.24 42.832C1490.25 43.376 1489.66 44.0107 1489.48 44.736C1489.29 45.4613 1489.2 46.504 1489.2 47.864V83.224L1524.29 48.952C1526.1 47.32 1527.01 45.8693 1527.01 44.6C1527.01 42.7867 1525.65 41.88 1522.93 41.88H1520.48V37.8H1547.41V41.88H1545.24C1543.6 41.88 1541.25 42.7413 1538.16 44.464C1535.08 46.1867 1532.45 48.136 1530.28 50.312L1507.16 73.16L1537.89 119.4C1538.98 120.851 1539.98 122.301 1540.88 123.752C1543.6 127.197 1547.23 128.92 1551.76 128.92H1555.03V133ZM1653.21 93.832V47.864C1653.21 43.8747 1650.4 41.88 1644.78 41.88H1640.43V37.8H1673.07V41.88H1667.9C1664.91 41.88 1662.64 42.4693 1661.1 43.648C1659.65 44.736 1658.93 46.1413 1658.93 47.864V93.832C1658.93 100.723 1657.66 106.979 1655.12 112.6C1652.67 118.131 1649.5 122.528 1645.6 125.792C1637.53 132.411 1629.01 135.72 1620.03 135.72C1611.05 135.72 1603.08 132.909 1596.09 127.288C1589.2 121.667 1585.76 115.048 1585.76 107.432V47.864C1585.76 46.504 1585.67 45.4613 1585.49 44.736C1585.3 44.0107 1584.72 43.376 1583.72 42.832C1582.72 42.1973 1581.22 41.88 1579.23 41.88H1574.61V37.8H1609.42V41.88H1604.25C1602.26 41.88 1600.76 42.1973 1599.77 42.832C1598.77 43.376 1598.18 44.0107 1598 44.736C1597.82 45.4613 1597.73 46.504 1597.73 47.864V95.736C1597.73 105.8 1599.99 113.099 1604.53 117.632C1609.15 122.075 1616.04 124.296 1625.2 124.296C1629.46 124.296 1633.36 123.571 1636.89 122.12C1640.43 120.669 1643.24 118.947 1645.33 116.952C1647.5 114.957 1649.36 111.965 1650.9 107.976C1652.44 103.896 1653.21 99.1813 1653.21 93.832ZM1721.88 84.856L1728.41 85.128C1735.21 85.128 1741.47 84.04 1747.18 81.864C1750.53 80.5947 1753.21 78.6 1755.2 75.88C1757.29 73.16 1758.33 69.8053 1758.33 65.816C1758.33 51.4907 1749.72 44.328 1732.49 44.328L1718.35 44.872V123.208C1718.35 124.477 1718.44 125.475 1718.62 126.2C1718.8 126.925 1719.39 127.605 1720.39 128.24C1721.38 128.875 1722.88 129.192 1724.88 129.192H1730.04V133H1695.5V129.192H1699.85C1701.85 129.192 1703.34 128.875 1704.34 128.24C1705.34 127.605 1705.93 126.925 1706.11 126.2C1706.29 125.475 1706.38 124.477 1706.38 123.208V47.864C1706.38 45.7787 1705.93 44.2827 1705.02 43.376C1704.2 42.3787 1702.48 41.88 1699.85 41.88H1695.5V37.8H1716.44L1742.28 36.44C1750.44 36.44 1757.02 38.208 1762 41.744C1766.99 45.28 1769.48 50.2667 1769.48 56.704C1769.48 63.0507 1767.99 68.6267 1765 73.432C1762.09 78.1467 1758.47 81.6827 1754.12 84.04C1745.86 88.392 1738.48 90.568 1731.95 90.568C1728.14 90.568 1725.15 90.4773 1722.97 90.296L1721.88 84.856Z" fill="black"/>
<path d="M651.648 134.904L649.472 135.72L626.896 70.712L607.584 126.472L600.512 134.904L598.336 135.72L567.872 47.864C567.056 45.8693 566.104 44.3733 565.016 43.376C564.019 42.3787 562.432 41.88 560.256 41.88H555.632V37.8H589.36V41.88H586.096C582.107 41.88 580.112 43.0587 580.112 45.416C580.112 46.1413 580.475 47.5013 581.2 49.496L604.864 118.312L624.176 62.552L619.008 47.864C617.92 44.9627 616.968 43.24 616.152 42.696C615.336 42.152 614.203 41.88 612.752 41.88H611.664V37.8H642.128V41.88H637.232C633.061 41.88 630.976 42.968 630.976 45.144C630.976 46.232 631.339 47.6827 632.064 49.496L656 118.312L679.392 51.128C680.48 47.5013 681.024 45.2347 681.024 44.328C681.024 43.3307 680.389 42.696 679.12 42.424C677.941 42.0613 675.493 41.88 671.776 41.88H669.872V37.8H696.528V41.88H694.08C691.179 41.88 689.275 42.288 688.368 43.104C687.461 43.92 686.555 45.688 685.648 48.408L658.72 126.472L651.648 134.904ZM752.072 135.72C740.195 135.72 730.267 131.141 722.288 121.984C714.4 112.827 710.456 102.264 710.456 90.296C710.456 82.8613 712.088 75.6987 715.352 68.808C718.616 61.9173 722.787 56.0693 727.864 51.264C733.032 46.4587 738.699 42.6053 744.864 39.704C751.12 36.8027 757.15 35.352 762.952 35.352C774.739 35.352 784.622 39.9307 792.6 49.088C800.579 58.2453 804.568 68.808 804.568 80.776C804.568 89.6613 802.166 98.3653 797.36 106.888C792.555 115.32 786.027 122.256 777.776 127.696C769.616 133.045 761.048 135.72 752.072 135.72ZM760.504 125.384C770.387 125.384 778.683 121.757 785.392 114.504C792.192 107.251 795.592 98.2747 795.592 87.576C795.592 76.8773 791.648 67.2667 783.76 58.744C775.963 50.2213 766.488 45.96 755.336 45.96C745.816 45.96 737.43 49.4053 730.176 56.296C723.014 63.096 719.432 71.256 719.432 80.776C719.432 93.1067 723.195 103.624 730.72 112.328C738.336 121.032 748.264 125.384 760.504 125.384ZM848.044 37.8L873.884 36.44C881.862 36.44 888.39 38.1173 893.468 41.472C898.545 44.8267 901.084 49.4053 901.084 55.208C901.084 63.2773 898.908 69.8507 894.556 74.928C890.204 80.0053 884.854 83.8587 878.508 86.488L900.54 119.672C901.446 121.123 903.169 123.072 905.708 125.52C908.337 127.968 910.694 129.192 912.78 129.192H915.228V133H895.1C895.372 133 894.51 131.64 892.516 128.92C890.521 126.2 889.388 124.568 889.116 124.024L866.54 89.208C865.633 89.3893 863.82 89.48 861.1 89.48C858.38 89.48 856.204 89.3893 854.572 89.208L853.484 83.768C854.753 83.9493 857.473 84.04 861.644 84.04C865.814 84.04 869.985 83.496 874.156 82.408C878.326 81.32 881.998 79.28 885.172 76.288C888.345 73.2053 889.932 69.2613 889.932 64.456C889.932 51.0373 881.318 44.328 864.092 44.328L849.948 44.872V122.936C849.948 124.296 850.038 125.339 850.22 126.064C850.401 126.789 850.99 127.515 851.988 128.24C852.985 128.875 854.481 129.192 856.476 129.192H861.644V133H827.1V129.192H831.452C833.446 129.192 834.942 128.875 835.94 128.24C836.937 127.515 837.526 126.789 837.708 126.064C837.889 125.339 837.98 124.296 837.98 122.936V47.864C837.98 45.7787 837.526 44.2827 836.62 43.376C835.804 42.3787 834.081 41.88 831.452 41.88H827.1V37.8H848.044ZM1024.04 133H993.027V128.92H995.475C996.926 128.92 997.651 128.557 997.651 127.832C997.651 127.469 996.926 126.2 995.475 124.024L967.731 81.048L958.211 90.568V122.936C958.211 124.296 958.302 125.339 958.483 126.064C958.664 126.789 959.254 127.469 960.251 128.104C961.248 128.648 962.744 128.92 964.739 128.92H969.907V133H935.363V128.92H939.715C941.71 128.92 943.206 128.648 944.203 128.104C945.2 127.469 945.79 126.789 945.971 126.064C946.152 125.339 946.243 124.296 946.243 122.936V47.864C946.243 46.504 946.152 45.4613 945.971 44.736C945.79 44.0107 945.2 43.376 944.203 42.832C943.206 42.1973 941.71 41.88 939.715 41.88H935.363V37.8H969.907V41.88H964.739C962.744 41.88 961.248 42.1973 960.251 42.832C959.254 43.376 958.664 44.0107 958.483 44.736C958.302 45.4613 958.211 46.504 958.211 47.864V83.224L993.299 48.952C995.112 47.32 996.019 45.8693 996.019 44.6C996.019 42.7867 994.659 41.88 991.939 41.88H989.491V37.8H1016.42V41.88H1014.24C1012.61 41.88 1010.25 42.7413 1007.17 44.464C1004.09 46.1867 1001.46 48.136 999.283 50.312L976.163 73.16L1006.9 119.4C1007.99 120.851 1008.98 122.301 1009.89 123.752C1012.61 127.197 1016.24 128.92 1020.77 128.92H1024.04V133ZM1042.8 126.472L1044.7 108.792L1049.33 109.064C1049.33 114.051 1052.27 118.085 1058.17 121.168C1064.15 124.16 1070.9 125.656 1078.43 125.656C1086.05 125.656 1091.76 124.523 1095.57 122.256C1099.37 119.899 1101.28 116.952 1101.28 113.416C1101.28 107.432 1098.1 102.083 1091.76 97.368C1089.13 95.464 1086.36 93.7867 1083.46 92.336C1076.84 88.8907 1072.67 86.7147 1070.95 85.808C1069.32 84.8107 1067.46 83.8133 1065.37 82.816C1063.29 81.8187 1061.34 80.776 1059.53 79.688C1057.8 78.5093 1055.94 77.104 1053.95 75.472C1049.42 71.8453 1047.15 67.8107 1047.15 63.368C1047.15 58.8347 1047.92 54.8907 1049.46 51.536C1051.09 48.1813 1053.09 45.552 1055.45 43.648C1057.89 41.744 1060.75 40.1573 1064.01 38.888C1069.54 36.8933 1075.71 35.896 1082.51 35.896C1089.4 35.896 1096.02 37.6187 1102.37 41.064L1100.73 56.84H1096.11C1096.11 48.3173 1088.95 44.056 1074.62 44.056C1068 44.056 1063.02 45.0987 1059.66 47.184C1056.4 49.2693 1054.77 52.1253 1054.77 55.752C1054.77 61.5547 1064.2 68.536 1083.05 76.696C1095.48 82.0453 1103.41 87.984 1106.85 94.512C1108.58 97.776 1109.44 101.357 1109.44 105.256C1109.44 114.685 1105.63 121.984 1098.01 127.152C1090.49 132.32 1081.38 134.904 1070.68 134.904C1059.98 134.904 1050.69 132.093 1042.8 126.472ZM1134.22 120.216C1136.31 120.216 1137.89 120.941 1138.98 122.392C1140.16 123.843 1140.75 125.611 1140.75 127.696C1140.75 129.781 1139.89 131.549 1138.17 133C1136.44 134.451 1134.54 135.176 1132.45 135.176C1130.46 135.176 1128.87 134.451 1127.69 133C1126.61 131.549 1126.06 129.827 1126.06 127.832C1126.06 125.837 1126.92 124.069 1128.65 122.528C1130.37 120.987 1132.23 120.216 1134.22 120.216Z" fill="black"/>
<path d="M1901.65 138.904L1899.47 139.72L1876.9 74.712L1857.58 130.472L1850.51 138.904L1848.34 139.72L1817.87 51.864C1817.06 49.8693 1816.1 48.3733 1815.02 47.376C1814.02 46.3787 1812.43 45.88 1810.26 45.88H1805.63V41.8H1839.36V45.88H1836.1C1832.11 45.88 1830.11 47.0587 1830.11 49.416C1830.11 50.1413 1830.47 51.5013 1831.2 53.496L1854.86 122.312L1874.18 66.552L1869.01 51.864C1867.92 48.9627 1866.97 47.24 1866.15 46.696C1865.34 46.152 1864.2 45.88 1862.75 45.88H1861.66V41.8H1892.13V45.88H1887.23C1883.06 45.88 1880.98 46.968 1880.98 49.144C1880.98 50.232 1881.34 51.6827 1882.06 53.496L1906 122.312L1929.39 55.128C1930.48 51.5013 1931.02 49.2347 1931.02 48.328C1931.02 47.3307 1930.39 46.696 1929.12 46.424C1927.94 46.0613 1925.49 45.88 1921.78 45.88H1919.87V41.8H1946.53V45.88H1944.08C1941.18 45.88 1939.27 46.288 1938.37 47.104C1937.46 47.92 1936.55 49.688 1935.65 52.408L1908.72 130.472L1901.65 138.904ZM2002.07 139.72C1990.19 139.72 1980.27 135.141 1972.29 125.984C1964.4 116.827 1960.46 106.264 1960.46 94.296C1960.46 86.8613 1962.09 79.6987 1965.35 72.808C1968.62 65.9173 1972.79 60.0693 1977.86 55.264C1983.03 50.4587 1988.7 46.6053 1994.86 43.704C2001.12 40.8027 2007.15 39.352 2012.95 39.352C2024.74 39.352 2034.62 43.9307 2042.6 53.088C2050.58 62.2453 2054.57 72.808 2054.57 84.776C2054.57 93.6613 2052.17 102.365 2047.36 110.888C2042.55 119.32 2036.03 126.256 2027.78 131.696C2019.62 137.045 2011.05 139.72 2002.07 139.72ZM2010.5 129.384C2020.39 129.384 2028.68 125.757 2035.39 118.504C2042.19 111.251 2045.59 102.275 2045.59 91.576C2045.59 80.8773 2041.65 71.2667 2033.76 62.744C2025.96 54.2213 2016.49 49.96 2005.34 49.96C1995.82 49.96 1987.43 53.4053 1980.18 60.296C1973.01 67.096 1969.43 75.256 1969.43 84.776C1969.43 97.1067 1973.19 107.624 1980.72 116.328C1988.34 125.032 1998.26 129.384 2010.5 129.384ZM2098.04 41.8L2123.88 40.44C2131.86 40.44 2138.39 42.1173 2143.47 45.472C2148.55 48.8267 2151.08 53.4053 2151.08 59.208C2151.08 67.2773 2148.91 73.8507 2144.56 78.928C2140.2 84.0053 2134.85 87.8587 2128.51 90.488L2150.54 123.672C2151.45 125.123 2153.17 127.072 2155.71 129.52C2158.34 131.968 2160.69 133.192 2162.78 133.192H2165.23V137H2145.1C2145.37 137 2144.51 135.64 2142.52 132.92C2140.52 130.2 2139.39 128.568 2139.12 128.024L2116.54 93.208C2115.63 93.3893 2113.82 93.48 2111.1 93.48C2108.38 93.48 2106.2 93.3893 2104.57 93.208L2103.48 87.768C2104.75 87.9493 2107.47 88.04 2111.64 88.04C2115.81 88.04 2119.99 87.496 2124.16 86.408C2128.33 85.32 2132 83.28 2135.17 80.288C2138.35 77.2053 2139.93 73.2613 2139.93 68.456C2139.93 55.0373 2131.32 48.328 2114.09 48.328L2099.95 48.872V126.936C2099.95 128.296 2100.04 129.339 2100.22 130.064C2100.4 130.789 2100.99 131.515 2101.99 132.24C2102.99 132.875 2104.48 133.192 2106.48 133.192H2111.64V137H2077.1V133.192H2081.45C2083.45 133.192 2084.94 132.875 2085.94 132.24C2086.94 131.515 2087.53 130.789 2087.71 130.064C2087.89 129.339 2087.98 128.296 2087.98 126.936V51.864C2087.98 49.7787 2087.53 48.2827 2086.62 47.376C2085.8 46.3787 2084.08 45.88 2081.45 45.88H2077.1V41.8H2098.04ZM2274.04 137H2243.03V132.92H2245.48C2246.93 132.92 2247.65 132.557 2247.65 131.832C2247.65 131.469 2246.93 130.2 2245.48 128.024L2217.73 85.048L2208.21 94.568V126.936C2208.21 128.296 2208.3 129.339 2208.48 130.064C2208.66 130.789 2209.25 131.469 2210.25 132.104C2211.25 132.648 2212.74 132.92 2214.74 132.92H2219.91V137H2185.36V132.92H2189.72C2191.71 132.92 2193.21 132.648 2194.2 132.104C2195.2 131.469 2195.79 130.789 2195.97 130.064C2196.15 129.339 2196.24 128.296 2196.24 126.936V51.864C2196.24 50.504 2196.15 49.4613 2195.97 48.736C2195.79 48.0107 2195.2 47.376 2194.2 46.832C2193.21 46.1973 2191.71 45.88 2189.72 45.88H2185.36V41.8H2219.91V45.88H2214.74C2212.74 45.88 2211.25 46.1973 2210.25 46.832C2209.25 47.376 2208.66 48.0107 2208.48 48.736C2208.3 49.4613 2208.21 50.504 2208.21 51.864V87.224L2243.3 52.952C2245.11 51.32 2246.02 49.8693 2246.02 48.6C2246.02 46.7867 2244.66 45.88 2241.94 45.88H2239.49V41.8H2266.42V45.88H2264.24C2262.61 45.88 2260.25 46.7413 2257.17 48.464C2254.09 50.1867 2251.46 52.136 2249.28 54.312L2226.16 77.16L2256.9 123.4C2257.99 124.851 2258.98 126.301 2259.89 127.752C2262.61 131.197 2266.24 132.92 2270.77 132.92H2274.04V137ZM2292.8 130.472L2294.7 112.792L2299.33 113.064C2299.33 118.051 2302.27 122.085 2308.17 125.168C2314.15 128.16 2320.9 129.656 2328.43 129.656C2336.05 129.656 2341.76 128.523 2345.57 126.256C2349.37 123.899 2351.28 120.952 2351.28 117.416C2351.28 111.432 2348.1 106.083 2341.76 101.368C2339.13 99.464 2336.36 97.7867 2333.46 96.336C2326.84 92.8907 2322.67 90.7147 2320.95 89.808C2319.32 88.8107 2317.46 87.8133 2315.37 86.816C2313.29 85.8187 2311.34 84.776 2309.53 83.688C2307.8 82.5093 2305.94 81.104 2303.95 79.472C2299.42 75.8453 2297.15 71.8107 2297.15 67.368C2297.15 62.8347 2297.92 58.8907 2299.46 55.536C2301.09 52.1813 2303.09 49.552 2305.45 47.648C2307.89 45.744 2310.75 44.1573 2314.01 42.888C2319.54 40.8933 2325.71 39.896 2332.51 39.896C2339.4 39.896 2346.02 41.6187 2352.37 45.064L2350.73 60.84H2346.11C2346.11 52.3173 2338.95 48.056 2324.62 48.056C2318 48.056 2313.02 49.0987 2309.66 51.184C2306.4 53.2693 2304.77 56.1253 2304.77 59.752C2304.77 65.5547 2314.2 72.536 2333.05 80.696C2345.48 86.0453 2353.41 91.984 2356.85 98.512C2358.58 101.776 2359.44 105.357 2359.44 109.256C2359.44 118.685 2355.63 125.984 2348.01 131.152C2340.49 136.32 2331.38 138.904 2320.68 138.904C2309.98 138.904 2300.69 136.093 2292.8 130.472ZM2384.22 124.216C2386.31 124.216 2387.89 124.941 2388.98 126.392C2390.16 127.843 2390.75 129.611 2390.75 131.696C2390.75 133.781 2389.89 135.549 2388.17 137C2386.44 138.451 2384.54 139.176 2382.45 139.176C2380.46 139.176 2378.87 138.451 2377.69 137C2376.61 135.549 2376.06 133.827 2376.06 131.832C2376.06 129.837 2376.92 128.069 2378.65 126.528C2380.37 124.987 2382.23 124.216 2384.22 124.216Z" fill="black"/>
</svg>
