<svg width="203" height="88" viewBox="0 0 203 88" fill="none" xmlns="http://www.w3.org/2000/svg">
<path d="M38.0101 3.51667e-05L30.0301 29.988H26.2081L20.3701 10.332C20.2021 9.74404 20.0341 9.14204 19.8661 8.52604C19.6981 7.91004 19.5441 7.32204 19.4041 6.76204C19.2641 6.20204 19.1381 5.72604 19.0261 5.33404C18.9421 4.91404 18.8861 4.60604 18.8581 4.41004C18.8301 4.60604 18.7741 4.91404 18.6901 5.33404C18.6341 5.72604 18.5361 6.20204 18.3961 6.76204C18.2561 7.32204 18.1021 7.92403 17.9341 8.56804C17.7941 9.18404 17.6261 9.81404 17.4301 10.458L11.7601 29.988H7.93809L9.37544e-05 3.51667e-05H3.94809L8.61009 18.312C8.77809 18.956 8.93209 19.6 9.07209 20.244C9.21209 20.86 9.33809 21.476 9.45009 22.092C9.59009 22.68 9.70209 23.254 9.78609 23.814C9.87009 24.374 9.95409 24.92 10.0381 25.452C10.1221 24.892 10.2061 24.318 10.2901 23.73C10.4021 23.142 10.5281 22.54 10.6681 21.924C10.8081 21.28 10.9621 20.636 11.1301 19.992C11.2981 19.348 11.4661 18.718 11.6341 18.102L16.9261 3.51667e-05H20.8321L26.3341 18.228C26.5301 18.872 26.7121 19.53 26.8801 20.202C27.0481 20.846 27.2021 21.476 27.3421 22.092C27.4821 22.708 27.5941 23.31 27.6781 23.898C27.7901 24.458 27.8881 24.976 27.9721 25.452C28.0561 24.752 28.1681 24.024 28.3081 23.268C28.4481 22.484 28.6161 21.672 28.8121 20.832C29.0081 19.992 29.2181 19.138 29.4421 18.27L34.0621 3.51667e-05H38.0101ZM59.375 29.988H42.617V3.51667e-05H59.375V3.31804H46.397V12.684H58.619V15.96H46.397V26.67H59.375V29.988ZM74.5229 3.51667e-05C77.0149 3.51667e-05 79.1009 0.238035 80.7809 0.714036C82.4889 1.19004 83.7629 1.97404 84.6029 3.06604C85.4709 4.15804 85.9049 5.61404 85.9049 7.43404C85.9049 8.61004 85.6809 9.66004 85.2329 10.584C84.8129 11.48 84.1689 12.236 83.3009 12.852C82.4609 13.44 81.4249 13.846 80.1929 14.07V14.28C81.4529 14.476 82.5869 14.84 83.5949 15.372C84.6309 15.904 85.4429 16.66 86.0309 17.64C86.6189 18.62 86.9129 19.894 86.9129 21.462C86.9129 23.282 86.4929 24.836 85.6529 26.124C84.8129 27.384 83.6089 28.35 82.0409 29.022C80.5009 29.666 78.6529 29.988 76.4969 29.988H65.9549V3.51667e-05H74.5229ZM75.2789 12.768C77.8549 12.768 79.6189 12.362 80.5709 11.55C81.5229 10.71 81.9989 9.47804 81.9989 7.85404C81.9989 6.20204 81.4109 5.02604 80.2349 4.32604C79.0869 3.59804 77.2389 3.23404 74.6909 3.23404H69.7349V12.768H75.2789ZM69.7349 15.918V26.796H75.7829C78.4429 26.796 80.2909 26.278 81.3269 25.242C82.3629 24.206 82.8809 22.848 82.8809 21.168C82.8809 20.104 82.6429 19.18 82.1669 18.396C81.7189 17.612 80.9489 17.01 79.8569 16.59C78.7929 16.142 77.3369 15.918 75.4889 15.918H69.7349ZM27.5941 71.7C27.5941 75.06 26.9641 77.874 25.7041 80.142C24.4721 82.41 22.6941 84.118 20.3701 85.266C18.0461 86.414 15.2321 86.988 11.9281 86.988H3.57009V57H12.8101C15.8341 57 18.4521 57.56 20.6641 58.68C22.8761 59.8 24.5841 61.452 25.7881 63.636C26.9921 65.792 27.5941 68.48 27.5941 71.7ZM23.6041 71.826C23.6041 69.166 23.1561 66.982 22.2601 65.274C21.3921 63.566 20.1041 62.306 18.3961 61.494C16.7161 60.654 14.6721 60.234 12.2641 60.234H7.35009V83.754H11.4241C15.4841 83.754 18.5221 82.76 20.5381 80.772C22.5821 78.756 23.6041 75.774 23.6041 71.826ZM51.0078 86.988H34.2498V57H51.0078V60.318H38.0298V69.684H50.2518V72.96H38.0298V83.67H51.0078V86.988ZM74.5977 78.966C74.5977 80.758 74.1637 82.284 73.2957 83.544C72.4277 84.776 71.1817 85.728 69.5577 86.4C67.9617 87.072 66.0717 87.408 63.8877 87.408C62.7677 87.408 61.6897 87.352 60.6537 87.24C59.6457 87.128 58.7217 86.974 57.8817 86.778C57.0417 86.554 56.2997 86.288 55.6557 85.98V82.368C56.6637 82.816 57.9097 83.222 59.3937 83.586C60.9057 83.95 62.4597 84.132 64.0557 84.132C65.5397 84.132 66.7857 83.936 67.7937 83.544C68.8017 83.152 69.5577 82.592 70.0617 81.864C70.5657 81.136 70.8177 80.282 70.8177 79.302C70.8177 78.322 70.6077 77.496 70.1877 76.824C69.7677 76.152 69.0397 75.536 68.0037 74.976C66.9957 74.388 65.5817 73.772 63.7617 73.128C62.4737 72.652 61.3397 72.148 60.3597 71.616C59.4077 71.056 58.6097 70.426 57.9657 69.726C57.3217 69.026 56.8317 68.228 56.4957 67.332C56.1877 66.436 56.0337 65.4 56.0337 64.224C56.0337 62.628 56.4397 61.27 57.2517 60.15C58.0637 59.002 59.1837 58.12 60.6117 57.504C62.0677 56.888 63.7337 56.58 65.6097 56.58C67.2617 56.58 68.7737 56.734 70.1457 57.042C71.5177 57.35 72.7637 57.756 73.8837 58.26L72.7077 61.494C71.6717 61.046 70.5377 60.668 69.3057 60.36C68.1017 60.052 66.8417 59.898 65.5257 59.898C64.2657 59.898 63.2157 60.08 62.3757 60.444C61.5357 60.808 60.9057 61.326 60.4857 61.998C60.0657 62.642 59.8557 63.398 59.8557 64.266C59.8557 65.274 60.0657 66.114 60.4857 66.786C60.9057 67.458 61.5917 68.06 62.5437 68.592C63.4957 69.124 64.7837 69.698 66.4077 70.314C68.1717 70.958 69.6557 71.658 70.8597 72.414C72.0917 73.142 73.0157 74.024 73.6317 75.06C74.2757 76.096 74.5977 77.398 74.5977 78.966ZM89.0805 86.988H78.2445V84.804L81.7725 84.006V60.024L78.2445 59.184V57H89.0805V59.184L85.5525 60.024V84.006L89.0805 84.804V86.988ZM107.891 71.154H118.265V85.854C116.641 86.386 115.003 86.778 113.351 87.03C111.699 87.282 109.823 87.408 107.723 87.408C104.615 87.408 101.997 86.792 99.8689 85.56C97.7409 84.3 96.1169 82.522 94.9969 80.226C93.9049 77.902 93.3589 75.158 93.3589 71.994C93.3589 68.858 93.9749 66.142 95.2069 63.846C96.4389 61.55 98.2029 59.772 100.499 58.512C102.823 57.224 105.623 56.58 108.899 56.58C110.579 56.58 112.161 56.734 113.645 57.042C115.157 57.35 116.557 57.784 117.845 58.344L116.417 61.62C115.353 61.144 114.149 60.738 112.805 60.402C111.489 60.066 110.117 59.898 108.689 59.898C106.309 59.898 104.265 60.388 102.557 61.368C100.849 62.348 99.5469 63.748 98.6509 65.568C97.7549 67.36 97.3069 69.502 97.3069 71.994C97.3069 74.374 97.6849 76.488 98.4409 78.336C99.2249 80.156 100.443 81.584 102.095 82.62C103.747 83.628 105.917 84.132 108.605 84.132C109.501 84.132 110.285 84.104 110.957 84.048C111.657 83.964 112.287 83.866 112.847 83.754C113.435 83.642 113.981 83.53 114.485 83.418V74.514H107.891V71.154ZM149.2 86.988H144.79L128.746 62.082H128.578C128.606 62.586 128.634 63.146 128.662 63.762C128.718 64.378 128.76 65.05 128.788 65.778C128.816 66.478 128.844 67.206 128.872 67.962C128.9 68.718 128.914 69.474 128.914 70.23V86.988H125.428V57H129.796L145.798 81.822H145.966C145.938 81.486 145.91 81.024 145.882 80.436C145.854 79.82 145.826 79.148 145.798 78.42C145.77 77.664 145.742 76.894 145.714 76.11C145.686 75.326 145.672 74.598 145.672 73.926V57H149.2V86.988ZM174.096 86.988H157.338V57H174.096V60.318H161.118V69.684H173.34V72.96H161.118V83.67H174.096V86.988ZM188.95 57C191.442 57 193.486 57.322 195.082 57.966C196.706 58.582 197.91 59.52 198.694 60.78C199.478 62.04 199.87 63.622 199.87 65.526C199.87 67.122 199.576 68.452 198.988 69.516C198.4 70.58 197.644 71.434 196.72 72.078C195.824 72.694 194.872 73.184 193.864 73.548L202.096 86.988H197.686L190.42 74.598H184.456V86.988H180.676V57H188.95ZM188.74 60.276H184.456V71.406H188.95C190.574 71.406 191.904 71.196 192.94 70.776C193.976 70.328 194.732 69.684 195.208 68.844C195.712 68.004 195.964 66.954 195.964 65.694C195.964 64.378 195.698 63.328 195.166 62.544C194.662 61.76 193.878 61.186 192.814 60.822C191.75 60.458 190.392 60.276 188.74 60.276Z" fill="white"/>
</svg>
