<svg width="1083" height="111" viewBox="0 0 1083 111" fill="none" xmlns="http://www.w3.org/2000/svg">
<path d="M135.75 1.49997L107.25 108.6H93.6002L72.7502 38.4C72.1502 36.3 71.5502 34.15 70.9502 31.95C70.3502 29.75 69.8002 27.65 69.3002 25.65C68.8002 23.65 68.3502 21.95 67.9502 20.55C67.6502 19.05 67.4502 17.95 67.3502 17.25C67.2502 17.95 67.0502 19.05 66.7502 20.55C66.5502 21.95 66.2002 23.65 65.7002 25.65C65.2002 27.65 64.6502 29.8 64.0502 32.1C63.5502 34.3 62.9502 36.55 62.2502 38.85L42.0002 108.6H28.3502L0.000195328 1.49997H14.1002L30.7502 66.9C31.3502 69.2 31.9002 71.5 32.4002 73.8C32.9002 76 33.3502 78.2 33.7502 80.4C34.2502 82.5 34.6502 84.55 34.9502 86.55C35.2502 88.55 35.5502 90.5 35.8502 92.4C36.1502 90.4 36.4502 88.35 36.7502 86.25C37.1502 84.15 37.6002 82 38.1002 79.8C38.6002 77.5 39.1502 75.2 39.7502 72.9C40.3502 70.6 40.9502 68.35 41.5502 66.15L60.4502 1.49997H74.4002L94.0502 66.6C94.7502 68.9 95.4002 71.25 96.0002 73.65C96.6002 75.95 97.1502 78.2 97.6502 80.4C98.1502 82.6 98.5502 84.75 98.8502 86.85C99.2502 88.85 99.6002 90.7 99.9002 92.4C100.2 89.9 100.6 87.3 101.1 84.6C101.6 81.8 102.2 78.9 102.9 75.9C103.6 72.9 104.35 69.85 105.15 66.75L121.65 1.49997H135.75ZM212.053 108.6H152.203V1.49997H212.053V13.35H165.703V46.8H209.353V58.5H165.703V96.75H212.053V108.6ZM266.153 1.49997C275.053 1.49997 282.503 2.34997 288.503 4.04997C294.603 5.74997 299.153 8.54997 302.153 12.45C305.253 16.35 306.803 21.55 306.803 28.05C306.803 32.25 306.003 36 304.403 39.3C302.903 42.5 300.603 45.2 297.503 47.4C294.503 49.5 290.803 50.95 286.403 51.75V52.5C290.903 53.2 294.953 54.5 298.553 56.4C302.253 58.3 305.153 61 307.253 64.5C309.353 68 310.403 72.55 310.403 78.15C310.403 84.65 308.903 90.2 305.903 94.8C302.903 99.3 298.603 102.75 293.003 105.15C287.503 107.45 280.903 108.6 273.203 108.6H235.553V1.49997H266.153ZM268.853 47.1C278.053 47.1 284.353 45.65 287.753 42.75C291.153 39.75 292.853 35.35 292.853 29.55C292.853 23.65 290.753 19.45 286.553 16.95C282.453 14.35 275.853 13.05 266.753 13.05H249.053V47.1H268.853ZM249.053 58.35V97.2H270.653C280.153 97.2 286.753 95.35 290.453 91.65C294.153 87.95 296.003 83.1 296.003 77.1C296.003 73.3 295.153 70 293.453 67.2C291.853 64.4 289.103 62.25 285.203 60.75C281.403 59.15 276.203 58.35 269.603 58.35H249.053ZM459.341 54C459.341 66 457.091 76.05 452.591 84.15C448.191 92.25 441.841 98.35 433.541 102.45C425.241 106.55 415.191 108.6 403.391 108.6H373.541V1.49997H406.541C417.341 1.49997 426.691 3.49997 434.591 7.49997C442.491 11.5 448.591 17.4 452.891 25.2C457.191 32.9 459.341 42.5 459.341 54ZM445.091 54.45C445.091 44.95 443.491 37.15 440.291 31.05C437.191 24.95 432.591 20.45 426.491 17.55C420.491 14.55 413.191 13.05 404.591 13.05H387.041V97.05H401.591C416.091 97.05 426.941 93.5 434.141 86.4C441.441 79.2 445.091 68.55 445.091 54.45ZM542.962 108.6H483.112V1.49997H542.962V13.35H496.612V46.8H540.262V58.5H496.612V96.75H542.962V108.6ZM627.211 79.95C627.211 86.35 625.661 91.8 622.561 96.3C619.461 100.7 615.011 104.1 609.211 106.5C603.511 108.9 596.761 110.1 588.961 110.1C584.961 110.1 581.111 109.9 577.411 109.5C573.811 109.1 570.511 108.55 567.511 107.85C564.511 107.05 561.861 106.1 559.561 105V92.1C563.161 93.7 567.611 95.15 572.911 96.45C578.311 97.75 583.861 98.4 589.561 98.4C594.861 98.4 599.311 97.7 602.911 96.3C606.511 94.9 609.211 92.9 611.011 90.3C612.811 87.7 613.711 84.65 613.711 81.15C613.711 77.65 612.961 74.7 611.461 72.3C609.961 69.9 607.361 67.7 603.661 65.7C600.061 63.6 595.011 61.4 588.511 59.1C583.911 57.4 579.861 55.6 576.361 53.7C572.961 51.7 570.111 49.45 567.811 46.95C565.511 44.45 563.761 41.6 562.561 38.4C561.461 35.2 560.911 31.5 560.911 27.3C560.911 21.6 562.361 16.75 565.261 12.75C568.161 8.64997 572.161 5.49997 577.261 3.29997C582.461 1.09997 588.411 -2.99215e-05 595.111 -2.99215e-05C601.011 -2.99215e-05 606.411 0.549969 611.311 1.64997C616.211 2.74997 620.661 4.19997 624.661 5.99997L620.461 17.55C616.761 15.95 612.711 14.6 608.311 13.5C604.011 12.4 599.511 11.85 594.811 11.85C590.311 11.85 586.561 12.5 583.561 13.8C580.561 15.1 578.311 16.95 576.811 19.35C575.311 21.65 574.561 24.35 574.561 27.45C574.561 31.05 575.311 34.05 576.811 36.45C578.311 38.85 580.761 41 584.161 42.9C587.561 44.8 592.161 46.85 597.961 49.05C604.261 51.35 609.561 53.85 613.861 56.55C618.261 59.15 621.561 62.3 623.761 66C626.061 69.7 627.211 74.35 627.211 79.95ZM678.935 108.6H640.235V100.8L652.835 97.95V12.3L640.235 9.29997V1.49997H678.935V9.29997L666.335 12.3V97.95L678.935 100.8V108.6ZM746.115 52.05H783.165V104.55C777.365 106.45 771.515 107.85 765.615 108.75C759.715 109.65 753.015 110.1 745.515 110.1C734.415 110.1 725.065 107.9 717.465 103.5C709.865 99 704.065 92.65 700.065 84.45C696.165 76.15 694.215 66.35 694.215 55.05C694.215 43.85 696.415 34.15 700.815 25.95C705.215 17.75 711.515 11.4 719.715 6.89997C728.015 2.29997 738.015 -2.99215e-05 749.715 -2.99215e-05C755.715 -2.99215e-05 761.365 0.549969 766.665 1.64997C772.065 2.74997 777.065 4.29997 781.665 6.29997L776.565 18C772.765 16.3 768.465 14.85 763.665 13.65C758.965 12.45 754.065 11.85 748.965 11.85C740.465 11.85 733.165 13.6 727.065 17.1C720.965 20.6 716.315 25.6 713.115 32.1C709.915 38.5 708.315 46.15 708.315 55.05C708.315 63.55 709.665 71.1 712.365 77.7C715.165 84.2 719.515 89.3 725.415 93C731.315 96.6 739.065 98.4 748.665 98.4C751.865 98.4 754.665 98.3 757.065 98.1C759.565 97.8 761.815 97.45 763.815 97.05C765.915 96.65 767.865 96.25 769.665 95.85V64.05H746.115V52.05ZM893.646 108.6H877.896L820.596 19.65H819.996C820.096 21.45 820.196 23.45 820.296 25.65C820.496 27.85 820.646 30.25 820.746 32.85C820.846 35.35 820.946 37.95 821.046 40.65C821.146 43.35 821.196 46.05 821.196 48.75V108.6H808.746V1.49997H824.346L881.496 90.15H882.096C881.996 88.95 881.896 87.3 881.796 85.2C881.696 83 881.596 80.6 881.496 78C881.396 75.3 881.296 72.55 881.196 69.75C881.096 66.95 881.046 64.35 881.046 61.95V1.49997H893.646V108.6ZM982.561 108.6H922.711V1.49997H982.561V13.35H936.211V46.8H979.861V58.5H936.211V96.75H982.561V108.6ZM1035.61 1.49997C1044.51 1.49997 1051.81 2.64997 1057.51 4.94997C1063.31 7.14997 1067.61 10.5 1070.41 15C1073.21 19.5 1074.61 25.15 1074.61 31.95C1074.61 37.65 1073.56 42.4 1071.46 46.2C1069.36 50 1066.66 53.05 1063.36 55.35C1060.16 57.55 1056.76 59.3 1053.16 60.6L1082.56 108.6H1066.81L1040.86 64.35H1019.56V108.6H1006.06V1.49997H1035.61ZM1034.86 13.2H1019.56V52.95H1035.61C1041.41 52.95 1046.16 52.2 1049.86 50.7C1053.56 49.1 1056.26 46.8 1057.96 43.8C1059.76 40.8 1060.66 37.05 1060.66 32.55C1060.66 27.85 1059.71 24.1 1057.81 21.3C1056.01 18.5 1053.21 16.45 1049.41 15.15C1045.61 13.85 1040.76 13.2 1034.86 13.2Z" fill="white"/>
</svg>
