<svg width="297" height="27" viewBox="0 0 297 27" fill="none" xmlns="http://www.w3.org/2000/svg">
<path d="M4.44502e-05 0.357976H3.63073L10.8921 12.5796H11.1989L18.4603 0.357976H22.091L12.6307 15.75V26.5398H9.46027V15.75L4.44502e-05 0.357976ZM47.0519 13.4489C47.0519 16.2102 46.5533 18.5966 45.5562 20.608C44.559 22.6193 43.1911 24.1705 41.4525 25.2614C39.7138 26.3523 37.728 26.8977 35.4951 26.8977C33.2621 26.8977 31.2763 26.3523 29.5377 25.2614C27.7991 24.1705 26.4312 22.6193 25.434 20.608C24.4368 18.5966 23.9383 16.2102 23.9383 13.4489C23.9383 10.6875 24.4368 8.30116 25.434 6.28979C26.4312 4.27843 27.7991 2.72729 29.5377 1.63639C31.2763 0.545476 33.2621 2.12193e-05 35.4951 2.12193e-05C37.728 2.12193e-05 39.7138 0.545476 41.4525 1.63639C43.1911 2.72729 44.559 4.27843 45.5562 6.28979C46.5533 8.30116 47.0519 10.6875 47.0519 13.4489ZM43.9837 13.4489C43.9837 11.1818 43.6044 9.26849 42.8459 7.70883C42.0959 6.14917 41.0775 4.96877 39.7905 4.16764C38.5121 3.3665 37.0803 2.96593 35.4951 2.96593C33.9098 2.96593 32.4738 3.3665 31.1868 4.16764C29.9084 4.96877 28.89 6.14917 28.1314 7.70883C27.3814 9.26849 27.0064 11.1818 27.0064 13.4489C27.0064 15.7159 27.3814 17.6293 28.1314 19.1889C28.89 20.7486 29.9084 21.929 31.1868 22.7301C32.4738 23.5313 33.9098 23.9318 35.4951 23.9318C37.0803 23.9318 38.5121 23.5313 39.7905 22.7301C41.0775 21.929 42.0959 20.7486 42.8459 19.1889C43.6044 17.6293 43.9837 15.7159 43.9837 13.4489ZM69.5647 0.357976H72.7351V17.6932C72.7351 19.483 72.3133 21.081 71.4695 22.4872C70.6343 23.885 69.4539 24.9887 67.9283 25.7983C66.4027 26.5995 64.613 27 62.559 27C60.505 27 58.7152 26.5995 57.1897 25.7983C55.6641 24.9887 54.4794 23.885 53.6357 22.4872C52.8005 21.081 52.3829 19.483 52.3829 17.6932V0.357976H55.5533V17.4375C55.5533 18.7159 55.8346 19.8537 56.3971 20.8509C56.9596 21.8395 57.7607 22.6193 58.8005 23.1904C59.8488 23.7529 61.1016 24.0341 62.559 24.0341C64.0164 24.0341 65.2692 23.7529 66.3175 23.1904C67.3658 22.6193 68.1669 21.8395 68.7209 20.8509C69.2834 19.8537 69.5647 18.7159 69.5647 17.4375V0.357976ZM79.0665 26.5398V0.357976H82.2369V12.0171H96.1971V0.357976H99.3676V26.5398H96.1971V14.8296H82.2369V26.5398H79.0665ZM105.715 26.5398V0.357976H121.516V3.17048H108.885V12.0171H120.698V14.8296H108.885V23.7273H121.721V26.5398H105.715ZM130.401 0.357976V26.5398H127.231V0.357976H130.401ZM139.008 0.357976V2.65911C139.008 3.35798 138.88 4.10371 138.624 4.89633C138.377 5.68042 138.011 6.4432 137.525 7.18468C137.048 7.91763 136.468 8.55684 135.786 9.10229L134.15 7.77275C134.687 7.0057 135.151 6.20883 135.543 5.38212C135.944 4.5469 136.144 3.65627 136.144 2.71025V0.357976H139.008ZM154.125 11.3012L151.415 12.0682C151.244 11.6165 150.993 11.1776 150.661 10.7514C150.337 10.3168 149.894 9.95883 149.331 9.67758C148.769 9.39633 148.048 9.2557 147.17 9.2557C145.969 9.2557 144.967 9.53269 144.166 10.0867C143.374 10.6321 142.977 11.3267 142.977 12.1705C142.977 12.9205 143.25 13.5128 143.795 13.9475C144.341 14.3821 145.193 14.7443 146.352 15.0341L149.267 15.75C151.023 16.1762 152.331 16.8281 153.192 17.706C154.053 18.5753 154.483 19.696 154.483 21.0682C154.483 22.1932 154.159 23.1989 153.511 24.0852C152.872 24.9716 151.977 25.6705 150.827 26.1818C149.676 26.6932 148.338 26.9489 146.813 26.9489C144.81 26.9489 143.152 26.5142 141.84 25.6449C140.527 24.7756 139.696 23.5057 139.347 21.8352L142.21 21.1193C142.483 22.1762 142.999 22.9688 143.757 23.4972C144.524 24.0256 145.526 24.2898 146.761 24.2898C148.168 24.2898 149.284 23.9915 150.111 23.3949C150.946 22.7898 151.364 22.0654 151.364 21.2216C151.364 20.5398 151.125 19.9688 150.648 19.5085C150.17 19.0398 149.438 18.6904 148.449 18.4602L145.176 17.6932C143.378 17.2671 142.057 16.6066 141.213 15.7117C140.378 14.8083 139.96 13.679 139.96 12.3239C139.96 11.2159 140.271 10.2358 140.894 9.38354C141.524 8.53127 142.381 7.86224 143.463 7.37644C144.554 6.89065 145.79 6.64775 147.17 6.64775C149.114 6.64775 150.639 7.07389 151.747 7.92616C152.864 8.77843 153.656 9.90343 154.125 11.3012ZM177.638 26.5398H169.559V0.357976H177.996C180.536 0.357976 182.709 0.882124 184.516 1.93042C186.323 2.97019 187.708 4.46593 188.671 6.41764C189.634 8.36082 190.115 10.6875 190.115 13.3977C190.115 16.125 189.63 18.473 188.658 20.4418C187.686 22.402 186.272 23.9105 184.414 24.9674C182.556 26.0156 180.297 26.5398 177.638 26.5398ZM172.729 23.7273H177.434C179.598 23.7273 181.392 23.3097 182.816 22.4745C184.239 21.6392 185.3 20.4503 185.999 18.9077C186.698 17.3651 187.047 15.5284 187.047 13.3977C187.047 11.2841 186.702 9.46451 186.012 7.93894C185.321 6.40485 184.29 5.22871 182.918 4.41053C181.546 3.58383 179.837 3.17048 177.792 3.17048H172.729V23.7273ZM195.434 26.5398V0.357976H211.235V3.17048H198.604V12.0171H210.417V14.8296H198.604V23.7273H211.439V26.5398H195.434ZM231.267 6.90343C231.114 5.60798 230.492 4.60229 229.401 3.88639C228.31 3.17048 226.972 2.81252 225.387 2.81252C224.228 2.81252 223.213 3.00002 222.344 3.37502C221.483 3.75002 220.81 4.26565 220.324 4.9219C219.847 5.57815 219.608 6.32388 219.608 7.15911C219.608 7.85798 219.775 8.45883 220.107 8.96167C220.448 9.45599 220.883 9.86934 221.411 10.2017C221.939 10.5256 222.493 10.7941 223.073 11.0071C223.652 11.2117 224.185 11.3779 224.671 11.5057L227.33 12.2216C228.012 12.4006 228.77 12.6477 229.606 12.9631C230.449 13.2784 231.255 13.7088 232.022 14.2543C232.797 14.7912 233.436 15.4816 233.939 16.3253C234.442 17.1691 234.694 18.2046 234.694 19.4318C234.694 20.8466 234.323 22.125 233.581 23.2671C232.848 24.4091 231.775 25.3168 230.36 25.9901C228.954 26.6634 227.245 27 225.233 27C223.358 27 221.735 26.6975 220.363 26.0924C218.999 25.4872 217.925 24.6435 217.141 23.5611C216.365 22.4787 215.927 21.2216 215.824 19.7898H219.097C219.182 20.7784 219.515 21.5966 220.094 22.2443C220.682 22.8835 221.424 23.3608 222.319 23.6762C223.222 23.983 224.194 24.1364 225.233 24.1364C226.444 24.1364 227.53 23.9404 228.493 23.5483C229.456 23.1477 230.219 22.5938 230.782 21.8864C231.344 21.1705 231.625 20.3352 231.625 19.3807C231.625 18.5114 231.383 17.804 230.897 17.2585C230.411 16.7131 229.772 16.2699 228.979 15.929C228.186 15.5881 227.33 15.2898 226.409 15.0341L223.188 14.1137C221.142 13.5256 219.523 12.6861 218.33 11.5952C217.137 10.5043 216.54 9.07673 216.54 7.31252C216.54 5.84661 216.936 4.5682 217.729 3.47729C218.53 2.37786 219.604 1.52559 220.951 0.920476C222.306 0.306839 223.819 2.12193e-05 225.489 2.12193e-05C227.177 2.12193e-05 228.677 0.302578 229.989 0.907691C231.302 1.50428 232.341 2.32246 233.108 3.36224C233.884 4.40201 234.293 5.58241 234.336 6.90343H231.267ZM243.077 0.357976V26.5398H239.906V0.357976H243.077ZM267.331 8.53979C267.05 7.679 266.679 6.90769 266.219 6.22587C265.767 5.53553 265.226 4.94746 264.596 4.46167C263.973 3.97587 263.266 3.60513 262.473 3.34945C261.681 3.09377 260.811 2.96593 259.865 2.96593C258.314 2.96593 256.904 3.3665 255.634 4.16764C254.364 4.96877 253.354 6.14917 252.604 7.70883C251.854 9.26849 251.479 11.1818 251.479 13.4489C251.479 15.7159 251.858 17.6293 252.617 19.1889C253.375 20.7486 254.402 21.929 255.698 22.7301C256.993 23.5313 258.451 23.9318 260.07 23.9318C261.57 23.9318 262.891 23.6122 264.033 22.973C265.184 22.3253 266.079 21.4134 266.718 20.2372C267.365 19.0526 267.689 17.6591 267.689 16.0568L268.661 16.2614H260.786V13.4489H270.758V16.2614C270.758 18.4176 270.297 20.2926 269.377 21.8864C268.465 23.4801 267.204 24.7159 265.593 25.5938C263.99 26.4631 262.15 26.8977 260.07 26.8977C257.752 26.8977 255.715 26.3523 253.959 25.2614C252.212 24.1705 250.848 22.6193 249.868 20.608C248.897 18.5966 248.411 16.2102 248.411 13.4489C248.411 11.3779 248.688 9.51565 249.242 7.86224C249.804 6.20031 250.597 4.78553 251.62 3.61792C252.642 2.45031 253.853 1.55542 255.25 0.93326C256.648 0.311101 258.186 2.12193e-05 259.865 2.12193e-05C261.246 2.12193e-05 262.533 0.208828 263.726 0.626441C264.928 1.03553 265.998 1.61934 266.935 2.37786C267.881 3.12786 268.669 4.02701 269.3 5.07531C269.931 6.11508 270.365 7.26991 270.604 8.53979H267.331ZM296.949 0.357976V26.5398H293.881L279.614 5.98298H279.358V26.5398H276.188V0.357976H279.256L293.574 20.9659H293.83V0.357976H296.949Z" fill="white"/>
</svg>
